<!-- The wordmark is path outlines, not live <text>. It used to be text pinned
     with textLength/lengthAdjust to Arial Bold advance widths, which made every
     OS horizontally stretch its own default font to hit those widths (~111% on
     macOS SF Pro) and shifted the baseline with the local font's x-height. The
     glyphs below are Arial Bold at the authored sizes, so the mark now renders
     identically everywhere. Do not convert these back to <text>. -->
<svg xmlns="http://www.w3.org/2000/svg" viewBox="104 16 268 62" width="268" height="62">
  <path d="M117.31 52.57L117.31 58.33L112.37 58.33L112.37 39.67L116.96 39.67L116.96 42.32Q118.14 40.44 119.08 39.84Q120.02 39.24 121.21 39.24L121.21 39.24Q122.9 39.24 124.47 40.18L124.47 40.18L122.94 44.48Q121.69 43.67 120.62 43.67L120.62 43.67Q119.58 43.67 118.86 44.25Q118.14 44.82 117.73 46.31Q117.31 47.8 117.31 52.57L117.31 52.57M125.45 48.74L125.45 48.74Q125.45 46.28 126.66 43.97Q127.88 41.67 130.1 40.46Q132.32 39.24 135.07 39.24L135.07 39.24Q139.3 39.24 142.01 42Q144.72 44.75 144.72 48.95L144.72 48.95Q144.72 53.18 141.98 55.97Q139.25 58.76 135.1 58.76L135.1 58.76Q132.54 58.76 130.21 57.6Q127.88 56.44 126.66 54.19Q125.45 51.95 125.45 48.74M130.51 49L130.51 49Q130.51 51.78 131.83 53.25Q133.15 54.73 135.08 54.73L135.08 54.73Q137.02 54.73 138.33 53.25Q139.64 51.78 139.64 48.96L139.64 48.96Q139.64 46.22 138.33 44.75Q137.02 43.27 135.08 43.27L135.08 43.27Q133.15 43.27 131.83 44.75Q130.51 46.22 130.51 49M147.44 48.74L147.44 48.74Q147.44 46.28 148.65 43.97Q149.87 41.67 152.09 40.46Q154.31 39.24 157.06 39.24L157.06 39.24Q161.29 39.24 164 42Q166.71 44.75 166.71 48.95L166.71 48.95Q166.71 53.18 163.97 55.97Q161.24 58.76 157.09 58.76L157.09 58.76Q154.53 58.76 152.2 57.6Q149.87 56.44 148.65 54.19Q147.44 51.95 147.44 48.74M152.5 49L152.5 49Q152.5 51.78 153.82 53.25Q155.14 54.73 157.07 54.73L157.07 54.73Q159.01 54.73 160.32 53.25Q161.63 51.78 161.63 48.96L161.63 48.96Q161.63 46.22 160.32 44.75Q159.01 43.27 157.07 43.27L157.07 43.27Q155.14 43.27 153.82 44.75Q152.5 46.22 152.5 49M170.21 58.33L170.21 39.67L174.76 39.67L174.76 42.21Q177.2 39.24 180.58 39.24L180.58 39.24Q182.37 39.24 183.69 39.98Q185.01 40.72 185.85 42.21L185.85 42.21Q187.08 40.72 188.5 39.98Q189.93 39.24 191.54 39.24L191.54 39.24Q193.6 39.24 195.03 40.08Q196.45 40.91 197.15 42.53L197.15 42.53Q197.66 43.73 197.66 46.4L197.66 46.4L197.66 58.33L192.72 58.33L192.72 47.66Q192.72 44.89 192.21 44.08L192.21 44.08Q191.53 43.02 190.1 43.02L190.1 43.02Q189.07 43.02 188.15 43.66Q187.24 44.29 186.83 45.51Q186.43 46.73 186.43 49.37L186.43 49.37L186.43 58.33L181.49 58.33L181.49 48.1Q181.49 45.38 181.23 44.59Q180.96 43.8 180.41 43.41Q179.86 43.02 178.91 43.02L178.91 43.02Q177.76 43.02 176.85 43.64Q175.94 44.25 175.54 45.41Q175.14 46.57 175.14 49.26L175.14 49.26L175.14 58.33L170.21 58.33" fill="#e8edf4"></path>
  <rect x="212" y="27" width="42" height="42" rx="11" fill="#58a6ff"></rect>
  <path d="M243.72 56.58L243.72 56.58L241.07 59.97Q239.11 59.02 237.32 57.35L237.32 57.35Q235.93 58.6 234.36 59.19Q232.8 59.79 230.65 59.79L230.65 59.79Q226.36 59.79 224.21 57.38L224.21 57.38Q222.54 55.52 222.54 53.1L222.54 53.1Q222.54 50.9 223.85 49.14Q225.16 47.38 227.77 46.08L227.77 46.08Q226.6 44.69 226.01 43.43Q225.41 42.18 225.41 41.05L225.41 41.05Q225.41 38.97 227.08 37.53Q228.74 36.08 231.82 36.08L231.82 36.08Q234.79 36.08 236.46 37.6Q238.13 39.11 238.13 41.3L238.13 41.3Q238.13 42.69 237.3 43.94Q236.47 45.19 233.96 46.77L233.96 46.77L237.15 50.97Q237.71 49.97 238.11 48.36L238.11 48.36L242.08 49.27Q241.49 51.38 241.05 52.36Q240.61 53.33 240.11 53.99L240.11 53.99Q240.85 54.68 242.01 55.5Q243.18 56.32 243.72 56.58M230.69 42.88L231.77 44.13L232.96 43.22Q234.27 42.21 234.27 41.21L234.27 41.21Q234.27 40.36 233.64 39.77Q233.01 39.18 231.93 39.18L231.93 39.18Q230.88 39.18 230.29 39.7Q229.69 40.22 229.69 40.91L229.69 40.91Q229.69 41.72 230.69 42.88L230.69 42.88M234.52 54.41L230.05 48.9Q228.54 49.66 227.79 50.74Q227.04 51.82 227.04 52.94L227.04 52.94Q227.04 54.36 227.97 55.26Q228.9 56.16 230.46 56.16L230.46 56.16Q231.49 56.16 232.44 55.76Q233.4 55.35 234.52 54.41L234.52 54.41" fill="#0d1117"></path>
  <path d="M272.96 58.33L268.37 58.33L268.37 32.56L273.31 32.56L273.31 41.85Q275.6 39.24 278.73 39.24L278.73 39.24Q282.14 39.24 284.37 41.71Q286.6 44.18 286.6 48.81L286.6 48.81Q286.6 53.59 284.32 56.17Q282.05 58.76 278.8 58.76L278.8 58.76Q277.2 58.76 275.64 57.96Q274.09 57.16 272.96 55.59L272.96 55.59L272.96 58.33M273.28 48.6L273.28 48.6Q273.28 51.5 274.19 52.88L274.19 52.88Q275.47 54.85 277.6 54.85L277.6 54.85Q279.24 54.85 280.39 53.46Q281.54 52.06 281.54 49.05L281.54 49.05Q281.54 45.85 280.38 44.44Q279.22 43.02 277.41 43.02L277.41 43.02Q275.63 43.02 274.45 44.4Q273.28 45.78 273.28 48.6M289.43 48.74L289.43 48.74Q289.43 46.28 290.64 43.97Q291.86 41.67 294.08 40.46Q296.3 39.24 299.05 39.24L299.05 39.24Q303.28 39.24 305.99 42Q308.7 44.75 308.7 48.95L308.7 48.95Q308.7 53.18 305.96 55.97Q303.23 58.76 299.08 58.76L299.08 58.76Q296.52 58.76 294.19 57.6Q291.86 56.44 290.64 54.19Q289.43 51.95 289.43 48.74M294.49 49L294.49 49Q294.49 51.78 295.81 53.25Q297.13 54.73 299.06 54.73L299.06 54.73Q301 54.73 302.31 53.25Q303.62 51.78 303.62 48.96L303.62 48.96Q303.62 46.22 302.31 44.75Q301 43.27 299.06 43.27L299.06 43.27Q297.13 43.27 295.81 44.75Q294.49 46.22 294.49 49M316.25 45.36L316.25 45.36L311.77 44.55Q312.53 41.85 314.37 40.54Q316.22 39.24 319.86 39.24L319.86 39.24Q323.16 39.24 324.78 40.03Q326.4 40.81 327.06 42.01Q327.72 43.22 327.72 46.43L327.72 46.43L327.66 52.2Q327.66 54.66 327.9 55.83Q328.14 57 328.79 58.33L328.79 58.33L323.9 58.33Q323.71 57.84 323.43 56.88L323.43 56.88Q323.3 56.44 323.25 56.29L323.25 56.29Q321.99 57.53 320.54 58.14Q319.1 58.76 317.47 58.76L317.47 58.76Q314.58 58.76 312.92 57.19Q311.26 55.63 311.26 53.24L311.26 53.24Q311.26 51.65 312.02 50.42Q312.77 49.18 314.14 48.52Q315.5 47.86 318.07 47.37L318.07 47.37Q321.53 46.71 322.86 46.15L322.86 46.15L322.86 45.66Q322.86 44.24 322.16 43.63Q321.46 43.02 319.51 43.02L319.51 43.02Q318.19 43.02 317.45 43.54Q316.71 44.06 316.25 45.36M322.86 50.35L322.86 49.37Q321.91 49.69 319.86 50.13Q317.8 50.56 317.17 50.99L317.17 50.99Q316.2 51.67 316.2 52.73L316.2 52.73Q316.2 53.76 316.98 54.52Q317.75 55.28 318.94 55.28L318.94 55.28Q320.28 55.28 321.49 54.4L321.49 54.4Q322.39 53.73 322.67 52.76L322.67 52.76Q322.86 52.13 322.86 50.35L322.86 50.35M337.31 52.57L337.31 58.33L332.37 58.33L332.37 39.67L336.96 39.67L336.96 42.32Q338.14 40.44 339.08 39.84Q340.02 39.24 341.22 39.24L341.22 39.24Q342.9 39.24 344.47 40.18L344.47 40.18L342.94 44.48Q341.69 43.67 340.62 43.67L340.62 43.67Q339.58 43.67 338.86 44.25Q338.14 44.82 337.73 46.31Q337.31 47.8 337.31 52.57L337.31 52.57M363.71 32.56L363.71 58.33L359.13 58.33L359.13 55.59Q357.98 57.19 356.43 57.97Q354.87 58.76 353.29 58.76L353.29 58.76Q350.07 58.76 347.78 56.16Q345.49 53.57 345.49 48.93L345.49 48.93Q345.49 44.18 347.72 41.71Q349.95 39.24 353.36 39.24L353.36 39.24Q356.49 39.24 358.78 41.85L358.78 41.85L358.78 32.56L363.71 32.56M350.53 48.6L350.53 48.6Q350.53 51.58 351.36 52.92L351.36 52.92Q352.55 54.85 354.7 54.85L354.7 54.85Q356.4 54.85 357.6 53.4Q358.79 51.95 358.79 49.07L358.79 49.07Q358.79 45.85 357.63 44.44Q356.47 43.02 354.66 43.02L354.66 43.02Q352.9 43.02 351.72 44.42Q350.53 45.82 350.53 48.6" fill="#e8edf4"></path>
</svg>
